<!-- 系统装配示意 SVG：展示两块 830 面包板上的 ESP32、传感器、执行器和电源分区摆放。 -->
<svg xmlns="http://www.w3.org/2000/svg" width="1800" height="1150" viewBox="0 0 1800 1150" role="img" aria-labelledby="title desc">
  <title id="title">两块 830 面包板真实装配效果图</title>
  <desc id="desc">ESP32-S3 老人监测系统在两块 830 面包板上的仿真实物摆放效果，包括传感器、执行器和电源分区。</desc>
  <defs>
    <linearGradient id="table" x1="0" y1="0" x2="1" y2="1">
      <stop offset="0" stop-color="#e7eaee"/>
      <stop offset="1" stop-color="#cfd6df"/>
    </linearGradient>
    <linearGradient id="bread" x1="0" y1="0" x2="0" y2="1">
      <stop offset="0" stop-color="#fffefa"/>
      <stop offset="1" stop-color="#ece7dc"/>
    </linearGradient>
    <linearGradient id="esp" x1="0" y1="0" x2="1" y2="1">
      <stop offset="0" stop-color="#0f5f96"/>
      <stop offset="1" stop-color="#123657"/>
    </linearGradient>
    <linearGradient id="moduleBlue" x1="0" y1="0" x2="1" y2="1">
      <stop offset="0" stop-color="#2a7fc3"/>
      <stop offset="1" stop-color="#115084"/>
    </linearGradient>
    <linearGradient id="moduleGreen" x1="0" y1="0" x2="1" y2="1">
      <stop offset="0" stop-color="#38b86f"/>
      <stop offset="1" stop-color="#177747"/>
    </linearGradient>
    <linearGradient id="mqBoard" x1="0" y1="0" x2="1" y2="1">
      <stop offset="0" stop-color="#235fae"/>
      <stop offset="1" stop-color="#183d78"/>
    </linearGradient>
    <filter id="shadow" x="-30%" y="-30%" width="160%" height="160%">
      <feDropShadow dx="0" dy="14" stdDeviation="13" flood-color="#0f172a" flood-opacity="0.28"/>
    </filter>
    <filter id="softShadow" x="-30%" y="-30%" width="160%" height="160%">
      <feDropShadow dx="0" dy="6" stdDeviation="6" flood-color="#0f172a" flood-opacity="0.22"/>
    </filter>
    <filter id="wireShadow" x="-20%" y="-20%" width="140%" height="140%">
      <feDropShadow dx="0" dy="3" stdDeviation="2" flood-color="#111827" flood-opacity="0.24"/>
    </filter>
    <style>
      .font { font-family: Arial, "Microsoft YaHei", sans-serif; }
      .label { font-family: Arial, "Microsoft YaHei", sans-serif; font-size: 19px; font-weight: 700; fill: #111827; }
      .small { font-family: Arial, "Microsoft YaHei", sans-serif; font-size: 14px; fill: #334155; }
      .tiny { font-family: Arial, "Microsoft YaHei", sans-serif; font-size: 12px; fill: #475569; }
      .white { font-family: Arial, "Microsoft YaHei", sans-serif; fill: #fff; font-weight: 700; }
    </style>
  </defs>

  <rect width="1800" height="1150" fill="url(#table)"/>
  <ellipse cx="900" cy="1020" rx="740" ry="70" fill="#93a1b3" opacity="0.25"/>
  <text x="900" y="55" text-anchor="middle" class="font" font-size="34" font-weight="700" fill="#111827">ESP32 老人监测系统：两块 830 面包板仿真实物效果图</text>
  <text x="900" y="91" text-anchor="middle" class="font" font-size="18" fill="#475569">左侧 3.3V 低功耗传感器区，右侧 5V 大电流/执行器区；两板只共 GND，不共 5V/3.3V</text>

  <!-- Breadboards -->
  <g transform="translate(110 165)" filter="url(#shadow)">
    <rect x="0" y="0" width="740" height="745" rx="24" fill="url(#bread)" stroke="#c8c0b3" stroke-width="4"/>
    <rect x="35" y="35" width="670" height="70" rx="10" fill="#f8fafc" stroke="#d5dbe3"/>
    <rect x="35" y="640" width="670" height="70" rx="10" fill="#f8fafc" stroke="#d5dbe3"/>
    <line x1="62" y1="56" x2="680" y2="56" stroke="#ef4444" stroke-width="7" stroke-linecap="round"/>
    <line x1="62" y1="80" x2="680" y2="80" stroke="#2563eb" stroke-width="7" stroke-linecap="round"/>
    <line x1="62" y1="662" x2="680" y2="662" stroke="#ef4444" stroke-width="7" stroke-linecap="round"/>
    <line x1="62" y1="686" x2="680" y2="686" stroke="#2563eb" stroke-width="7" stroke-linecap="round"/>
    <text x="35" y="-18" class="label">面包板 A：ESP32 + 3.3V 模块</text>
    <text x="716" y="60" class="small" fill="#ef4444">3.3V</text>
    <text x="716" y="84" class="small" fill="#2563eb">GND</text>
    <rect x="340" y="145" width="60" height="430" rx="10" fill="#dfe5ec" opacity="0.9"/>
    <text x="370" y="372" text-anchor="middle" transform="rotate(-90 370 372)" class="tiny">中间隔槽</text>
    <g fill="#1f2937" opacity="0.55">
      <g>
        <circle cx="78" cy="150" r="4"/><circle cx="118" cy="150" r="4"/><circle cx="158" cy="150" r="4"/><circle cx="198" cy="150" r="4"/><circle cx="238" cy="150" r="4"/><circle cx="278" cy="150" r="4"/>
        <circle cx="78" cy="200" r="4"/><circle cx="118" cy="200" r="4"/><circle cx="158" cy="200" r="4"/><circle cx="198" cy="200" r="4"/><circle cx="238" cy="200" r="4"/><circle cx="278" cy="200" r="4"/>
        <circle cx="78" cy="250" r="4"/><circle cx="118" cy="250" r="4"/><circle cx="158" cy="250" r="4"/><circle cx="198" cy="250" r="4"/><circle cx="238" cy="250" r="4"/><circle cx="278" cy="250" r="4"/>
        <circle cx="78" cy="300" r="4"/><circle cx="118" cy="300" r="4"/><circle cx="158" cy="300" r="4"/><circle cx="198" cy="300" r="4"/><circle cx="238" cy="300" r="4"/><circle cx="278" cy="300" r="4"/>
        <circle cx="78" cy="350" r="4"/><circle cx="118" cy="350" r="4"/><circle cx="158" cy="350" r="4"/><circle cx="198" cy="350" r="4"/><circle cx="238" cy="350" r="4"/><circle cx="278" cy="350" r="4"/>
        <circle cx="78" cy="400" r="4"/><circle cx="118" cy="400" r="4"/><circle cx="158" cy="400" r="4"/><circle cx="198" cy="400" r="4"/><circle cx="238" cy="400" r="4"/><circle cx="278" cy="400" r="4"/>
        <circle cx="78" cy="450" r="4"/><circle cx="118" cy="450" r="4"/><circle cx="158" cy="450" r="4"/><circle cx="198" cy="450" r="4"/><circle cx="238" cy="450" r="4"/><circle cx="278" cy="450" r="4"/>
        <circle cx="78" cy="500" r="4"/><circle cx="118" cy="500" r="4"/><circle cx="158" cy="500" r="4"/><circle cx="198" cy="500" r="4"/><circle cx="238" cy="500" r="4"/><circle cx="278" cy="500" r="4"/>
        <circle cx="78" cy="550" r="4"/><circle cx="118" cy="550" r="4"/><circle cx="158" cy="550" r="4"/><circle cx="198" cy="550" r="4"/><circle cx="238" cy="550" r="4"/><circle cx="278" cy="550" r="4"/>
      </g>
      <g>
        <circle cx="465" cy="150" r="4"/><circle cx="505" cy="150" r="4"/><circle cx="545" cy="150" r="4"/><circle cx="585" cy="150" r="4"/><circle cx="625" cy="150" r="4"/><circle cx="665" cy="150" r="4"/>
        <circle cx="465" cy="200" r="4"/><circle cx="505" cy="200" r="4"/><circle cx="545" cy="200" r="4"/><circle cx="585" cy="200" r="4"/><circle cx="625" cy="200" r="4"/><circle cx="665" cy="200" r="4"/>
        <circle cx="465" cy="250" r="4"/><circle cx="505" cy="250" r="4"/><circle cx="545" cy="250" r="4"/><circle cx="585" cy="250" r="4"/><circle cx="625" cy="250" r="4"/><circle cx="665" cy="250" r="4"/>
        <circle cx="465" cy="300" r="4"/><circle cx="505" cy="300" r="4"/><circle cx="545" cy="300" r="4"/><circle cx="585" cy="300" r="4"/><circle cx="625" cy="300" r="4"/><circle cx="665" cy="300" r="4"/>
        <circle cx="465" cy="350" r="4"/><circle cx="505" cy="350" r="4"/><circle cx="545" cy="350" r="4"/><circle cx="585" cy="350" r="4"/><circle cx="625" cy="350" r="4"/><circle cx="665" cy="350" r="4"/>
        <circle cx="465" cy="400" r="4"/><circle cx="505" cy="400" r="4"/><circle cx="545" cy="400" r="4"/><circle cx="585" cy="400" r="4"/><circle cx="625" cy="400" r="4"/><circle cx="665" cy="400" r="4"/>
        <circle cx="465" cy="450" r="4"/><circle cx="505" cy="450" r="4"/><circle cx="545" cy="450" r="4"/><circle cx="585" cy="450" r="4"/><circle cx="625" cy="450" r="4"/><circle cx="665" cy="450" r="4"/>
        <circle cx="465" cy="500" r="4"/><circle cx="505" cy="500" r="4"/><circle cx="545" cy="500" r="4"/><circle cx="585" cy="500" r="4"/><circle cx="625" cy="500" r="4"/><circle cx="665" cy="500" r="4"/>
        <circle cx="465" cy="550" r="4"/><circle cx="505" cy="550" r="4"/><circle cx="545" cy="550" r="4"/><circle cx="585" cy="550" r="4"/><circle cx="625" cy="550" r="4"/><circle cx="665" cy="550" r="4"/>
      </g>
    </g>
  </g>

  <g transform="translate(950 165)" filter="url(#shadow)">
    <rect x="0" y="0" width="740" height="745" rx="24" fill="url(#bread)" stroke="#c8c0b3" stroke-width="4"/>
    <rect x="35" y="35" width="670" height="70" rx="10" fill="#f8fafc" stroke="#d5dbe3"/>
    <rect x="35" y="640" width="670" height="70" rx="10" fill="#f8fafc" stroke="#d5dbe3"/>
    <line x1="62" y1="56" x2="680" y2="56" stroke="#ef4444" stroke-width="7" stroke-linecap="round"/>
    <line x1="62" y1="80" x2="680" y2="80" stroke="#2563eb" stroke-width="7" stroke-linecap="round"/>
    <line x1="62" y1="662" x2="680" y2="662" stroke="#ef4444" stroke-width="7" stroke-linecap="round"/>
    <line x1="62" y1="686" x2="680" y2="686" stroke="#2563eb" stroke-width="7" stroke-linecap="round"/>
    <text x="35" y="-18" class="label">面包板 B：5V 模块 + 执行器</text>
    <text x="716" y="60" class="small" fill="#ef4444">5V</text>
    <text x="716" y="84" class="small" fill="#2563eb">GND</text>
    <rect x="340" y="145" width="60" height="430" rx="10" fill="#dfe5ec" opacity="0.9"/>
    <g fill="#1f2937" opacity="0.45">
      <circle cx="88" cy="160" r="4"/><circle cx="128" cy="160" r="4"/><circle cx="168" cy="160" r="4"/><circle cx="208" cy="160" r="4"/><circle cx="248" cy="160" r="4"/><circle cx="288" cy="160" r="4"/>
      <circle cx="88" cy="220" r="4"/><circle cx="128" cy="220" r="4"/><circle cx="168" cy="220" r="4"/><circle cx="208" cy="220" r="4"/><circle cx="248" cy="220" r="4"/><circle cx="288" cy="220" r="4"/>
      <circle cx="88" cy="280" r="4"/><circle cx="128" cy="280" r="4"/><circle cx="168" cy="280" r="4"/><circle cx="208" cy="280" r="4"/><circle cx="248" cy="280" r="4"/><circle cx="288" cy="280" r="4"/>
      <circle cx="88" cy="340" r="4"/><circle cx="128" cy="340" r="4"/><circle cx="168" cy="340" r="4"/><circle cx="208" cy="340" r="4"/><circle cx="248" cy="340" r="4"/><circle cx="288" cy="340" r="4"/>
      <circle cx="88" cy="400" r="4"/><circle cx="128" cy="400" r="4"/><circle cx="168" cy="400" r="4"/><circle cx="208" cy="400" r="4"/><circle cx="248" cy="400" r="4"/><circle cx="288" cy="400" r="4"/>
      <circle cx="460" cy="160" r="4"/><circle cx="500" cy="160" r="4"/><circle cx="540" cy="160" r="4"/><circle cx="580" cy="160" r="4"/><circle cx="620" cy="160" r="4"/><circle cx="660" cy="160" r="4"/>
      <circle cx="460" cy="220" r="4"/><circle cx="500" cy="220" r="4"/><circle cx="540" cy="220" r="4"/><circle cx="580" cy="220" r="4"/><circle cx="620" cy="220" r="4"/><circle cx="660" cy="220" r="4"/>
      <circle cx="460" cy="280" r="4"/><circle cx="500" cy="280" r="4"/><circle cx="540" cy="280" r="4"/><circle cx="580" cy="280" r="4"/><circle cx="620" cy="280" r="4"/><circle cx="660" cy="280" r="4"/>
      <circle cx="460" cy="340" r="4"/><circle cx="500" cy="340" r="4"/><circle cx="540" cy="340" r="4"/><circle cx="580" cy="340" r="4"/><circle cx="620" cy="340" r="4"/><circle cx="660" cy="340" r="4"/>
      <circle cx="460" cy="400" r="4"/><circle cx="500" cy="400" r="4"/><circle cx="540" cy="400" r="4"/><circle cx="580" cy="400" r="4"/><circle cx="620" cy="400" r="4"/><circle cx="660" cy="400" r="4"/>
    </g>
  </g>

  <!-- Modules and components -->
  <g filter="url(#softShadow)">
    <!-- ESP32 -->
    <rect x="330" y="405" width="195" height="330" rx="18" fill="url(#esp)" stroke="#082f49" stroke-width="3"/>
    <rect x="375" y="430" width="105" height="56" rx="9" fill="#d7dde5" stroke="#a0a8b3"/>
    <rect x="385" y="443" width="85" height="17" rx="3" fill="#f8fafc"/>
    <rect x="368" y="520" width="120" height="90" rx="8" fill="#264b66" stroke="#0f2738"/>
    <text x="428" y="567" text-anchor="middle" class="white" font-size="24">ESP32-S3</text>
    <text x="428" y="645" text-anchor="middle" class="font" font-size="16" fill="#cbd5e1">USB 朝外</text>
    <g fill="#e5e7eb">
      <circle cx="338" cy="430" r="5"/><circle cx="338" cy="455" r="5"/><circle cx="338" cy="480" r="5"/><circle cx="338" cy="505" r="5"/><circle cx="338" cy="530" r="5"/><circle cx="338" cy="555" r="5"/><circle cx="338" cy="580" r="5"/><circle cx="338" cy="605" r="5"/><circle cx="338" cy="630" r="5"/><circle cx="338" cy="655" r="5"/><circle cx="338" cy="680" r="5"/><circle cx="338" cy="705" r="5"/>
      <circle cx="517" cy="430" r="5"/><circle cx="517" cy="455" r="5"/><circle cx="517" cy="480" r="5"/><circle cx="517" cy="505" r="5"/><circle cx="517" cy="530" r="5"/><circle cx="517" cy="555" r="5"/><circle cx="517" cy="580" r="5"/><circle cx="517" cy="605" r="5"/><circle cx="517" cy="630" r="5"/><circle cx="517" cy="655" r="5"/><circle cx="517" cy="680" r="5"/><circle cx="517" cy="705" r="5"/>
    </g>

    <!-- left modules -->
    <rect x="630" y="250" width="170" height="78" rx="10" fill="#111827" stroke="#0f172a"/>
    <rect x="645" y="263" width="140" height="48" rx="5" fill="#0b1220"/>
    <text x="715" y="293" text-anchor="middle" class="font" font-size="22" fill="#7dd3fc">OLED</text>
    <text x="715" y="348" text-anchor="middle" class="small">I2C: GPIO8/9</text>

    <rect x="630" y="375" width="140" height="92" rx="10" fill="url(#moduleBlue)" stroke="#0f3b62"/>
    <circle cx="656" cy="402" r="8" fill="#fbbf24"/>
    <circle cx="713" cy="421" r="22" fill="#dbeafe" stroke="#93c5fd"/>
    <text x="700" y="455" text-anchor="middle" class="white" font-size="17">BH1750</text>

    <rect x="620" y="520" width="120" height="150" rx="15" fill="#e5e7eb" stroke="#94a3b8" stroke-width="3"/>
    <rect x="642" y="545" width="76" height="86" rx="8" fill="#f8fafc" stroke="#cbd5e1"/>
    <circle cx="660" cy="565" r="4" fill="#64748b"/><circle cx="680" cy="565" r="4" fill="#64748b"/><circle cx="700" cy="565" r="4" fill="#64748b"/>
    <text x="680" y="692" text-anchor="middle" class="label">DHT22</text>

    <rect x="130" y="330" width="150" height="102" rx="12" fill="url(#moduleGreen)" stroke="#166534"/>
    <circle cx="205" cy="374" r="32" fill="#f8fafc" stroke="#cbd5e1" stroke-width="4"/>
    <circle cx="205" cy="374" r="18" fill="#dbeafe" stroke="#93c5fd"/>
    <text x="205" y="455" text-anchor="middle" class="label">PIR</text>

    <circle cx="175" cy="575" r="58" fill="#111827" stroke="#374151" stroke-width="5"/>
    <circle cx="175" cy="575" r="38" fill="none" stroke="#f8fafc" stroke-width="3"/>
    <circle cx="175" cy="575" r="20" fill="none" stroke="#f8fafc" stroke-width="3"/>
    <rect x="154" y="632" width="42" height="78" rx="6" fill="#f59e0b" stroke="#b45309"/>
    <text x="175" y="743" text-anchor="middle" class="label">FSR420</text>

    <rect x="125" y="780" width="150" height="72" rx="10" fill="#563b8f" stroke="#3b2368"/>
    <rect x="158" y="798" width="84" height="24" rx="12" fill="#c4b5fd"/>
    <text x="200" y="842" text-anchor="middle" class="white" font-size="18">SW420</text>

    <rect x="345" y="785" width="132" height="75" rx="12" fill="#fef08a" stroke="#ca8a04"/>
    <circle cx="411" cy="820" r="25" fill="#ef4444" stroke="#991b1b" stroke-width="4"/>
    <text x="411" y="880" text-anchor="middle" class="label">SOS</text>

    <!-- right modules -->
    <rect x="1030" y="300" width="190" height="142" rx="14" fill="url(#mqBoard)" stroke="#0f2f5f"/>
    <circle cx="1095" cy="350" r="38" fill="#d1d5db" stroke="#6b7280" stroke-width="5"/>
    <circle cx="1095" cy="350" r="24" fill="#f3f4f6" stroke="#9ca3af"/>
    <rect x="1152" y="323" width="42" height="54" rx="5" fill="#111827"/>
    <text x="1125" y="420" text-anchor="middle" class="white" font-size="22">MQ135</text>

    <rect x="1030" y="490" width="190" height="142" rx="14" fill="url(#mqBoard)" stroke="#0f2f5f"/>
    <circle cx="1095" cy="540" r="38" fill="#d1d5db" stroke="#6b7280" stroke-width="5"/>
    <circle cx="1095" cy="540" r="24" fill="#f3f4f6" stroke="#9ca3af"/>
    <rect x="1152" y="513" width="42" height="54" rx="5" fill="#111827"/>
    <text x="1125" y="610" text-anchor="middle" class="white" font-size="22">MQ7</text>

    <rect x="1390" y="270" width="120" height="85" rx="12" fill="#111827" stroke="#020617"/>
    <circle cx="1450" cy="312" r="28" fill="#27272a" stroke="#71717a" stroke-width="4"/>
    <circle cx="1450" cy="312" r="8" fill="#09090b"/>
    <text x="1450" y="380" text-anchor="middle" class="label">蜂鸣器</text>

    <rect x="1365" y="430" width="185" height="110" rx="14" fill="#1e40af" stroke="#172554"/>
    <rect x="1394" y="456" width="85" height="55" rx="8" fill="#bfdbfe" stroke="#60a5fa"/>
    <rect x="1490" y="460" width="35" height="46" rx="4" fill="#111827"/>
    <text x="1458" y="568" text-anchor="middle" class="label">继电器/风扇</text>

    <rect x="1380" y="620" width="140" height="82" rx="12" fill="#fef3c7" stroke="#d97706"/>
    <circle cx="1450" cy="657" r="24" fill="#fde047" stroke="#ca8a04" stroke-width="4"/>
    <text x="1450" y="728" text-anchor="middle" class="label">LED 灯</text>

    <rect x="1365" y="790" width="175" height="80" rx="14" fill="#2563eb" stroke="#1e3a8a"/>
    <rect x="1392" y="810" width="70" height="40" rx="7" fill="#93c5fd"/>
    <path d="M1470 830 L1530 800 L1535 818 L1474 846 Z" fill="#e5e7eb" stroke="#94a3b8" stroke-width="3"/>
    <text x="1452" y="898" text-anchor="middle" class="label">SG90 舵机</text>

    <rect x="1045" y="730" width="160" height="92" rx="12" fill="#0f172a" stroke="#020617"/>
    <circle cx="1082" cy="775" r="13" fill="#ef4444"/>
    <circle cx="1125" cy="775" r="13" fill="#111827" stroke="#e5e7eb"/>
    <text x="1125" y="852" text-anchor="middle" class="label">外部 5V</text>
  </g>

  <!-- Jumper wires -->
  <g fill="none" stroke-linecap="round" stroke-linejoin="round" filter="url(#wireShadow)" opacity="0.96">
    <!-- Power rails -->
    <path d="M520 455 C560 360 675 245 790 222" stroke="#ef4444" stroke-width="7"/>
    <path d="M520 482 C585 420 680 315 790 245" stroke="#2563eb" stroke-width="7"/>
    <path d="M850 245 C910 245 970 245 1012 245" stroke="#2563eb" stroke-width="7"/>
    <path d="M850 887 C925 887 964 887 1012 887" stroke="#2563eb" stroke-width="7"/>
    <path d="M1205 775 C1280 710 1460 270 1615 222" stroke="#ef4444" stroke-width="7"/>
    <path d="M1205 796 C1280 760 1460 330 1615 245" stroke="#2563eb" stroke-width="7"/>

    <!-- I2C and local sensor wires -->
    <path d="M520 530 C590 465 625 338 674 328" stroke="#22c55e" stroke-width="5"/>
    <path d="M520 545 C600 495 642 375 704 328" stroke="#f59e0b" stroke-width="5"/>
    <path d="M520 560 C585 525 625 462 642 442" stroke="#22c55e" stroke-width="5"/>
    <path d="M520 575 C598 548 655 468 690 442" stroke="#f59e0b" stroke-width="5"/>
    <path d="M520 595 C575 612 610 630 642 632" stroke="#a855f7" stroke-width="5"/>
    <path d="M330 545 C272 493 220 435 205 410" stroke="#0ea5e9" stroke-width="5"/>
    <path d="M330 610 C280 620 225 655 190 690" stroke="#ef4444" stroke-width="5"/>
    <path d="M330 635 C286 690 238 772 205 805" stroke="#8b5cf6" stroke-width="5"/>
    <path d="M380 735 C390 760 402 790 411 795" stroke="#eab308" stroke-width="5"/>

    <!-- Long signal wires to right board -->
    <path d="M525 505 C700 280 905 330 1030 345" stroke="#dc2626" stroke-width="5"/>
    <path d="M525 520 C720 410 885 525 1030 535" stroke="#fb923c" stroke-width="5"/>
    <path d="M525 650 C780 250 1185 280 1390 312" stroke="#db2777" stroke-width="5"/>
    <path d="M525 665 C805 360 1180 465 1365 485" stroke="#2563eb" stroke-width="5"/>
    <path d="M525 680 C820 480 1185 655 1380 657" stroke="#ca8a04" stroke-width="5"/>
    <path d="M525 695 C830 610 1175 820 1365 830" stroke="#16a34a" stroke-width="5"/>
  </g>

  <!-- Labels / cautions -->
  <g class="font" filter="url(#softShadow)">
    <rect x="130" y="955" width="1540" height="115" rx="18" fill="#ffffff" stroke="#cbd5e1"/>
    <text x="165" y="992" font-size="21" font-weight="700" fill="#111827">装配提醒</text>
    <text x="165" y="1025" font-size="17" fill="#334155">1. 左板红轨是 3.3V，右板红轨是外部 5V，千万不要把两个红轨直接连在一起。</text>
    <text x="165" y="1053" font-size="17" fill="#334155">2. 两块板的蓝色 GND 轨必须连通；MQ135、MQ7、舵机、继电器和 ESP32 要共地。</text>
    <text x="165" y="1081" font-size="17" fill="#334155">3. MQ 模块 AO 接 ESP32 ADC 前要确认不超过 3.3V；FSR420 可先用你手上的 1kΩ 电阻做下拉测试。</text>
  </g>
</svg>
